# xmcd
#
# Track frame offsets: 
#        150
#        11115
#        19790
#        30770
#        42780
#        50895
#        61755
#        72740
#
# Disc length: 1130 seconds
#
# Revision: 2
# Processed by: cddbd v1.5.2PL0 Copyright (c) Steve Scherf et al.
# Submitted via: ExactAudioCopyFreeDBPlugin 1.0
#
DISCID=65046808
DTITLE=Various Artist - Both Sides of Hank
DYEAR=1995
DGENRE=Country
TTITLE0=B. J. Thomas - Cold, Cold Heart
TTITLE1=Dorsey Burnett - Settin' the Woods On Fire
TTITLE2=Linda Plowman - I'm So Lonesome I Could Cry
TTITLE3=Fats Domino - Jambalaya (On the Bayou)
TTITLE4=Johnny Cash - Hey, Good Lookin'
TTITLE5=Jerry Lee Lewis - I Could Never Be Ashamed Of You
TTITLE6=Carl Perkins - Kaw-Liga
TTITLE7=Frankie Laine - Your Cheatin' Heart
EXTD=
EXTT0=
EXTT1=
EXTT2=
EXTT3=
EXTT4=
EXTT5=
EXTT6=
EXTT7=
PLAYORDER=
